<svg width="300" height="200" viewBox="0 0 300 200" xmlns="http://www.w3.org/2000/svg">
  <defs>
    <linearGradient id="teamGrad" x1="0%" y1="0%" x2="100%" y2="100%">
      <stop offset="0%" style="stop-color:#667eea;stop-opacity:1" />
      <stop offset="100%" style="stop-color:#764ba2;stop-opacity:1" />
    </linearGradient>
  </defs>
  
  <!-- Background -->
  <rect width="300" height="200" fill="#f8fafc" rx="10"/>
  
  <!-- Team members -->
  <!-- Person 1 -->
  <circle cx="80" cy="80" r="25" fill="url(#teamGrad)"/>
  <circle cx="80" cy="75" r="8" fill="#fff"/>
  <path d="M 65 95 Q 80 85 95 95 L 95 110 Q 80 120 65 110 Z" fill="url(#teamGrad)"/>
  
  <!-- Person 2 -->
  <circle cx="150" cy="80" r="25" fill="#4A90E2"/>
  <circle cx="150" cy="75" r="8" fill="#fff"/>
  <path d="M 135 95 Q 150 85 165 95 L 165 110 Q 150 120 135 110 Z" fill="#4A90E2"/>
  
  <!-- Person 3 -->
  <circle cx="220" cy="80" r="25" fill="#7B68EE"/>
  <circle cx="220" cy="75" r="8" fill="#fff"/>
  <path d="M 205 95 Q 220 85 235 95 L 235 110 Q 220 120 205 110 Z" fill="#7B68EE"/>
  
  <!-- Connecting lines -->
  <line x1="105" y1="90" x2="125" y2="90" stroke="#667eea" stroke-width="2" opacity="0.5"/>
  <line x1="175" y1="90" x2="195" y2="90" stroke="#667eea" stroke-width="2" opacity="0.5"/>
  
  <!-- Success indicators -->
  <circle cx="80" cy="140" r="15" fill="#4CAF50"/>
  <path d="M 73 140 L 78 145 L 87 135" stroke="#fff" stroke-width="2" fill="none"/>
  
  <circle cx="150" cy="140" r="15" fill="#4CAF50"/>
  <path d="M 143 140 L 148 145 L 157 135" stroke="#fff" stroke-width="2" fill="none"/>
  
  <circle cx="220" cy="140" r="15" fill="#4CAF50"/>
  <path d="M 213 140 L 218 145 L 227 135" stroke="#fff" stroke-width="2" fill="none"/>
  
  <!-- Decorative elements -->
  <circle cx="50" cy="30" r="3" fill="#667eea" opacity="0.3"/>
  <circle cx="250" cy="40" r="4" fill="#764ba2" opacity="0.3"/>
  <circle cx="30" cy="170" r="2" fill="#4A90E2" opacity="0.3"/>
  <circle cx="270" cy="160" r="3" fill="#7B68EE" opacity="0.3"/>
</svg>