<svg width="400" height="300" viewBox="0 0 400 300" xmlns="http://www.w3.org/2000/svg">
  <defs>
    <linearGradient id="buildingGrad" x1="0%" y1="0%" x2="100%" y2="100%">
      <stop offset="0%" style="stop-color:#667eea;stop-opacity:1" />
      <stop offset="100%" style="stop-color:#764ba2;stop-opacity:1" />
    </linearGradient>
    <linearGradient id="skyGrad" x1="0%" y1="0%" x2="0%" y2="100%">
      <stop offset="0%" style="stop-color:#87CEEB;stop-opacity:1" />
      <stop offset="100%" style="stop-color:#E0F6FF;stop-opacity:1" />
    </linearGradient>
  </defs>
  
  <!-- Sky background -->
  <rect width="400" height="200" fill="url(#skyGrad)"/>
  
  <!-- Ground -->
  <rect y="200" width="400" height="100" fill="#2E8B57"/>
  
  <!-- Main building -->
  <rect x="150" y="80" width="100" height="120" fill="url(#buildingGrad)" rx="5"/>
  
  <!-- Building details -->
  <rect x="160" y="90" width="15" height="20" fill="#fff" opacity="0.8"/>
  <rect x="180" y="90" width="15" height="20" fill="#fff" opacity="0.8"/>
  <rect x="200" y="90" width="15" height="20" fill="#fff" opacity="0.8"/>
  <rect x="220" y="90" width="15" height="20" fill="#fff" opacity="0.8"/>
  
  <rect x="160" y="120" width="15" height="20" fill="#fff" opacity="0.8"/>
  <rect x="180" y="120" width="15" height="20" fill="#fff" opacity="0.8"/>
  <rect x="200" y="120" width="15" height="20" fill="#fff" opacity="0.8"/>
  <rect x="220" y="120" width="15" height="20" fill="#fff" opacity="0.8"/>
  
  <rect x="160" y="150" width="15" height="20" fill="#fff" opacity="0.8"/>
  <rect x="180" y="150" width="15" height="20" fill="#fff" opacity="0.8"/>
  <rect x="200" y="150" width="15" height="20" fill="#fff" opacity="0.8"/>
  <rect x="220" y="150" width="15" height="20" fill="#fff" opacity="0.8"/>
  
  <!-- Side buildings -->
  <rect x="80" y="120" width="60" height="80" fill="#4A90E2" rx="3"/>
  <rect x="260" y="100" width="80" height="100" fill="#7B68EE" rx="3"/>
  
  <!-- Side building windows -->
  <rect x="90" y="130" width="10" height="15" fill="#fff" opacity="0.7"/>
  <rect x="105" y="130" width="10" height="15" fill="#fff" opacity="0.7"/>
  <rect x="120" y="130" width="10" height="15" fill="#fff" opacity="0.7"/>
  
  <rect x="270" y="110" width="12" height="18" fill="#fff" opacity="0.7"/>
  <rect x="290" y="110" width="12" height="18" fill="#fff" opacity="0.7"/>
  <rect x="310" y="110" width="12" height="18" fill="#fff" opacity="0.7"/>
  
  <!-- Clouds -->
  <circle cx="80" cy="50" r="20" fill="#fff" opacity="0.8"/>
  <circle cx="100" cy="45" r="25" fill="#fff" opacity="0.8"/>
  <circle cx="120" cy="50" r="20" fill="#fff" opacity="0.8"/>
  
  <circle cx="280" cy="40" r="18" fill="#fff" opacity="0.8"/>
  <circle cx="295" cy="35" r="22" fill="#fff" opacity="0.8"/>
  <circle cx="310" cy="40" r="18" fill="#fff" opacity="0.8"/>
  
  <!-- Trees -->
  <rect x="30" y="180" width="8" height="20" fill="#8B4513"/>
  <circle cx="34" cy="175" r="15" fill="#228B22"/>
  
  <rect x="350" y="185" width="6" height="15" fill="#8B4513"/>
  <circle cx="353" cy="182" r="12" fill="#32CD32"/>
</svg>